<?xml version="1.0" encoding="UTF-8" standalone="no"?>
<!-- Generator: Adobe Illustrator 17.0.0, SVG Export Plug-In . SVG Version: 6.00 Build 0)  -->

<svg
   xmlns:dc="http://purl.org/dc/elements/1.1/"
   xmlns:cc="http://creativecommons.org/ns#"
   xmlns:rdf="http://www.w3.org/1999/02/22-rdf-syntax-ns#"
   xmlns:svg="http://www.w3.org/2000/svg"
   xmlns="http://www.w3.org/2000/svg"
   xmlns:sodipodi="http://sodipodi.sourceforge.net/DTD/sodipodi-0.dtd"
   xmlns:inkscape="http://www.inkscape.org/namespaces/inkscape"
   version="1.1"
   id="Layer_1"
   x="0px"
   y="0px"
   width="93px"
   height="91px"
   viewBox="0 0 93 91"
   enable-background="new 0 0 93 91"
   xml:space="preserve"
   inkscape:version="0.48.3.1 r9886"
   sodipodi:docname="phone_empty_blue.svg"><metadata
   id="metadata15"><rdf:RDF><cc:Work
       rdf:about=""><dc:format>image/svg+xml</dc:format><dc:type
         rdf:resource="http://purl.org/dc/dcmitype/StillImage" /></cc:Work></rdf:RDF></metadata><defs
   id="defs13" /><sodipodi:namedview
   pagecolor="#ffffff"
   bordercolor="#666666"
   borderopacity="1"
   objecttolerance="10"
   gridtolerance="10"
   guidetolerance="10"
   inkscape:pageopacity="0"
   inkscape:pageshadow="2"
   inkscape:window-width="985"
   inkscape:window-height="480"
   id="namedview11"
   showgrid="false"
   inkscape:zoom="2.5934066"
   inkscape:cx="-13.845339"
   inkscape:cy="45.5"
   inkscape:window-x="0"
   inkscape:window-y="0"
   inkscape:window-maximized="0"
   inkscape:current-layer="Layer_1" />
<g
   id="g3"
   style="fill:#000000;fill-opacity:1">
	<path
   d="M57.839,70.631c-2.76,1.2-5.76,0.84-8.04-0.72c-0.36-0.12-0.6-0.36-0.84-0.6c-0.36-0.24-8.28-7.32-13.44-18.84   c-5.16-11.52-5.16-22.2-5.16-22.56c0-0.24,0-0.48,0-0.6c0.24-2.88,1.92-5.64,4.8-6.96c4.08-1.8,9,0,10.8,4.08s0,9-4.08,10.8   c-0.12,0.12-0.24,0.12-0.48,0.12c0.6,3.12,1.68,6.96,3.36,10.92c1.8,3.96,3.96,7.2,5.88,9.72c0.12-0.12,0.24-0.12,0.36-0.24   c4.08-1.8,9,0,10.8,4.08C63.839,63.911,62.039,68.831,57.839,70.631z"
   id="path5"
   style="fill:#000000;fill-opacity:1" />
</g>
<g
   id="g7"
   style="fill:#000000;fill-opacity:1">
	<path
   d="M46.5,90.7c-24.923,0-45.2-20.276-45.2-45.2c0-24.923,20.277-45.2,45.2-45.2c24.924,0,45.2,20.277,45.2,45.2   C91.7,70.424,71.424,90.7,46.5,90.7z M46.5,4.3C23.782,4.3,5.3,22.782,5.3,45.5s18.482,41.2,41.2,41.2s41.2-18.482,41.2-41.2   S69.218,4.3,46.5,4.3z"
   id="path9"
   style="fill:#000000;fill-opacity:1" />
</g>
</svg>