<?xml version="1.0" encoding="utf-8"?>
<!-- Generator: Adobe Illustrator 17.0.0, SVG Export Plug-In . SVG Version: 6.00 Build 0)  -->
<!DOCTYPE svg PUBLIC "-//W3C//DTD SVG 1.1//EN" "http://www.w3.org/Graphics/SVG/1.1/DTD/svg11.dtd">
<svg version="1.1" id="Layer_1" xmlns="http://www.w3.org/2000/svg" xmlns:xlink="http://www.w3.org/1999/xlink" x="0px" y="0px"
	 width="93px" height="91px" viewBox="0 0 93 91" enable-background="new 0 0 93 91" xml:space="preserve">
<g>
	<path d="M46.5,0.3C21.58,0.3,1.3,20.58,1.3,45.5s20.28,45.2,45.2,45.2s45.2-20.28,45.2-45.2S71.42,0.3,46.5,0.3z M57.84,70.63
		c-2.76,1.2-5.76,0.84-8.04-0.72c-0.36-0.12-0.6-0.36-0.84-0.6c-0.36-0.24-8.28-7.32-13.44-18.84c-5.16-11.52-5.16-22.2-5.16-22.56
		v-0.6c0.24-2.88,1.92-5.64,4.8-6.96c4.08-1.8,9,0,10.8,4.08c1.8,4.08,0,9-4.08,10.8c-0.12,0.12-0.24,0.12-0.48,0.12
		c0.6,3.12,1.68,6.96,3.36,10.92c1.8,3.96,3.96,7.2,5.88,9.72c0.12-0.12,0.24-0.12,0.36-0.24c4.08-1.8,9,0,10.8,4.08
		C63.84,63.91,62.04,68.83,57.84,70.63z"/>
</g>
</svg>
