<?xml version="1.0" encoding="utf-8"?>
<!-- Generator: Adobe Illustrator 17.0.0, SVG Export Plug-In . SVG Version: 6.00 Build 0)  -->
<!DOCTYPE svg PUBLIC "-//W3C//DTD SVG 1.1//EN" "http://www.w3.org/Graphics/SVG/1.1/DTD/svg11.dtd">
<svg version="1.1" id="Layer_1" xmlns="http://www.w3.org/2000/svg" xmlns:xlink="http://www.w3.org/1999/xlink" x="0px" y="0px"
	 width="54px" height="54.667px" viewBox="422.5 7.833 54 54.667" enable-background="new 422.5 7.833 54 54.667"
	 xml:space="preserve">
<g>
	<path d="M427.553,49.866c-0.934-0.933-0.934-2.461-0.001-3.394l8.239-8.245c0.933-0.934,0.933-2.462-0.001-3.395l-8.238-8.238
		c-0.934-0.934-0.934-2.461,0-3.394l9.238-9.238c0.934-0.934,2.588-1.086,3.676-0.339l8.058,5.532
		c1.089,0.746,2.877,1.958,3.975,2.69L472.5,35.196c1.098,0.733,1.098,1.933,0,2.666l-20,13.358
		c-1.098,0.733-2.886,1.943-3.974,2.69l-8.058,5.532c-1.089,0.746-2.742,0.594-3.676-0.339L427.553,49.866z"/>
</g>
</svg>
