<?xml version="1.0" encoding="utf-8"?>
<!-- Generator: Adobe Illustrator 17.0.0, SVG Export Plug-In . SVG Version: 6.00 Build 0)  -->
<!DOCTYPE svg PUBLIC "-//W3C//DTD SVG 1.1//EN" "http://www.w3.org/Graphics/SVG/1.1/DTD/svg11.dtd">
<svg version="1.1" id="Layer_1" xmlns="http://www.w3.org/2000/svg" xmlns:xlink="http://www.w3.org/1999/xlink" x="0px" y="0px"
	 width="38.982px" height="72.198px" viewBox="553.552 -98.964 38.982 72.198"
	 enable-background="new 553.552 -98.964 38.982 72.198" xml:space="preserve">
<g>
	<path d="M592.534-76.683c0-3.317-4.4-5.523-6.894-6.446c-4.097-1.517-8.739-3.236-8.739-12.65c0-1.756-1.267-3.185-2.822-3.185
		h-2.547c-1.555,0-2.82,1.429-2.82,3.185c0,9.909-4.468,11.454-8.41,12.818c-2.393,0.828-6.751,3.024-6.751,6.277
		c0,0,0.001,42.99,0.001,43.051c0,6.198,13.631,6.868,19.491,6.868c5.539,0,10.211-0.522,13.506-1.51
		c3.97-1.19,5.984-3.031,5.984-5.472C592.534-33.781,592.534-76.683,592.534-76.683z"/>
</g>
</svg>
