<?xml version="1.0" encoding="UTF-8" standalone="no"?>
<!-- Generator: Adobe Illustrator 17.0.0, SVG Export Plug-In . SVG Version: 6.00 Build 0)  -->

<svg
   xmlns:dc="http://purl.org/dc/elements/1.1/"
   xmlns:cc="http://creativecommons.org/ns#"
   xmlns:rdf="http://www.w3.org/1999/02/22-rdf-syntax-ns#"
   xmlns:svg="http://www.w3.org/2000/svg"
   xmlns="http://www.w3.org/2000/svg"
   xmlns:sodipodi="http://sodipodi.sourceforge.net/DTD/sodipodi-0.dtd"
   xmlns:inkscape="http://www.inkscape.org/namespaces/inkscape"
   version="1.1"
   id="Layer_1"
   x="0px"
   y="0px"
   width="60px"
   height="61px"
   viewBox="44.5 28.5 60 61"
   enable-background="new 44.5 28.5 60 61"
   xml:space="preserve"
   inkscape:version="0.48.3.1 r9886"
   sodipodi:docname="calendar.svg"><metadata
   id="metadata9"><rdf:RDF><cc:Work
       rdf:about=""><dc:format>image/svg+xml</dc:format><dc:type
         rdf:resource="http://purl.org/dc/dcmitype/StillImage" /></cc:Work></rdf:RDF></metadata><defs
   id="defs7" /><sodipodi:namedview
   pagecolor="#ffffff"
   bordercolor="#666666"
   borderopacity="1"
   objecttolerance="10"
   gridtolerance="10"
   guidetolerance="10"
   inkscape:pageopacity="0"
   inkscape:pageshadow="2"
   inkscape:window-width="681"
   inkscape:window-height="480"
   id="namedview5"
   showgrid="false"
   inkscape:zoom="3.8688525"
   inkscape:cx="30"
   inkscape:cy="30.5"
   inkscape:window-x="0"
   inkscape:window-y="0"
   inkscape:window-maximized="0"
   inkscape:current-layer="Layer_1" />
<path
   d="M95.5,38.5v-3c0-3.36-2.64-6-6-6s-6,2.64-6,6v3h-18v-3c0-3.36-2.64-6-6-6c-3.36,0-6,2.64-6,6v3h-9v51h60v-51H95.5z   M86.5,35.5c0-1.8,1.2-3,3-3s3,1.2,3,3v6c0,1.8-1.2,3-3,3s-3-1.2-3-3V35.5z M56.5,35.5c0-1.8,1.2-3,3-3c1.8,0,3,1.2,3,3v6  c0,1.8-1.2,3-3,3c-1.8,0-3-1.2-3-3V35.5z M98.5,83.5h-48v-30h48V83.5z"
   id="path3"
   style="fill:#3bace4;fill-opacity:1" />
</svg>