<?xml version="1.0" encoding="utf-8"?>
<!-- Generator: Adobe Illustrator 17.0.0, SVG Export Plug-In . SVG Version: 6.00 Build 0)  -->
<!DOCTYPE svg PUBLIC "-//W3C//DTD SVG 1.1//EN" "http://www.w3.org/Graphics/SVG/1.1/DTD/svg11.dtd">
<svg version="1.1" id="Layer_1" xmlns="http://www.w3.org/2000/svg" xmlns:xlink="http://www.w3.org/1999/xlink" x="0px" y="0px"
	 width="222.304px" height="190.56px" viewBox="140.576 122.976 222.304 190.56"
	 enable-background="new 140.576 122.976 222.304 190.56" xml:space="preserve">
<path d="M309.766,313.536c-6.979,0-13.543-2.722-18.483-7.657c-4.943-4.939-7.661-11.503-7.661-18.483
	c0-0.181,0.004-0.363,0.008-0.544h-75.092c0.141,6.875-2.403,13.793-7.633,19.031c-4.947,4.939-11.507,7.653-18.483,7.653
	s-13.539-2.722-18.479-7.657l0,0c-5.234-5.234-7.778-12.152-7.637-19.027h-11.495c-2.226,0-4.032-1.802-4.032-4.032v-11.269
	c-0.133-0.403-0.206-0.827-0.206-1.27c0-0.444,0.073-0.871,0.206-1.27V217.24c0-2.23,1.806-4.032,4.032-4.032h7.467v-73.536
	c0-2.226,1.806-4.032,4.032-4.032h99.816v-8.633l0,0l0,0c0-2.226,1.802-4.032,4.032-4.032c48.078,0,87.507,41.3,90.22,93.171
	c0.097,0.347,0.149,0.714,0.149,1.093v8.749c6.963,0.923,12.35,6.903,12.35,14.112c0,7.213-5.391,13.189-12.35,14.116v28.603
	c0,2.23-1.802,4.032-4.032,4.032h-10.616c0.141,6.875-2.403,13.793-7.637,19.031C323.306,310.819,316.746,313.536,309.766,313.536z
	 M292.001,284.01c-0.21,1.105-0.314,2.238-0.314,3.383c0,4.826,1.883,9.366,5.298,12.781c3.415,3.415,7.955,5.294,12.781,5.294
	c4.822,0,9.362-1.879,12.777-5.29c4.439-4.443,6.08-10.636,4.927-16.374c-0.028-0.101-0.048-0.206-0.069-0.306
	c-0.714-3.258-2.331-6.35-4.859-8.878c-3.415-3.415-7.951-5.294-12.777-5.294c-4.834,0-9.374,1.879-12.777,5.29
	c-2.427,2.427-4.08,5.415-4.834,8.669C292.126,283.534,292.074,283.78,292.001,284.01z M169.642,300.174
	c3.419,3.415,7.959,5.294,12.781,5.294c4.822,0,9.362-1.883,12.781-5.294c4.419-4.423,6.064-10.592,4.931-16.313
	c-0.036-0.137-0.069-0.278-0.089-0.419c-0.722-3.238-2.335-6.306-4.846-8.822c-0.407-0.407-0.827-0.79-1.262-1.149
	c-0.06-0.048-0.121-0.097-0.177-0.145c-3.201-2.597-7.161-4-11.338-4c-4.83,0-9.366,1.879-12.781,5.29
	C162.598,281.659,162.598,293.126,169.642,300.174z M334.438,278.789h8.024v-4.476H332.39
	C333.225,275.748,333.902,277.248,334.438,278.789z M263.088,278.789h21.978c0.544-1.552,1.23-3.052,2.06-4.476h-24.039V278.789z
	 M207.096,278.789h47.928v-4.476h-49.977C205.882,275.748,206.563,277.248,207.096,278.789z M148.845,278.789h8.903
	c0.532-1.54,1.218-3.04,2.048-4.476h-10.951V278.789z M309.766,261.262c5.625,0,10.971,1.766,15.418,5.028
	c0.189-0.028,0.387-0.044,0.589-0.044h16.692v-44.388c0-5.298-0.415-10.499-1.21-15.551h-64.887c-2.23,0-4.032-1.802-4.032-4.032
	v-62.496c0-2.218,1.794-4.024,4.012-4.032l9.854-0.044c-6.971-2.572-14.358-4.141-22.015-4.552v86.091
	c0,2.314-1.968,4.109-4.286,4.024h-0.589c-0.085,0.004-0.169,0.008-0.254,0.008H148.845v44.973h18.217
	c8.874-6.471,21.853-6.471,30.728,0h57.234v-36.348c0-2.23,1.802-4.032,4.032-4.032s4.032,1.802,4.032,4.032v36.348h31.308
	C298.828,263.007,304.162,261.262,309.766,261.262z M350.53,234.227v11.753c2.484-0.794,4.286-3.129,4.286-5.879
	C354.816,237.356,353.014,235.021,350.53,234.227z M160.345,213.2h95.784v-69.496h-95.784V213.2z M280.401,198.241h59.238
	c-5.713-23.386-19.696-43.07-38.26-54.968c-0.544,0.274-1.153,0.427-1.798,0.431l-19.18,0.089L280.401,198.241L280.401,198.241z
	 M309.766,301.634c-7.85,0-14.237-6.387-14.237-14.233c0-7.85,6.387-14.237,14.237-14.237c7.846,0,14.233,6.387,14.233,14.237
	C323.999,295.247,317.613,301.634,309.766,301.634z M309.766,281.224c-3.407,0-6.173,2.77-6.173,6.173s2.77,6.169,6.173,6.169
	s6.169-2.77,6.169-6.169C315.935,283.994,313.169,281.224,309.766,281.224z M182.424,301.634c-7.85,0-14.237-6.387-14.237-14.233
	c0-7.85,6.387-14.237,14.237-14.237c7.85,0,14.237,6.387,14.237,14.237C196.661,295.247,190.274,301.634,182.424,301.634z
	 M182.424,281.224c-3.403,0-6.173,2.77-6.173,6.173s2.77,6.169,6.173,6.169s6.173-2.77,6.173-6.169
	C188.597,283.994,185.827,281.224,182.424,281.224z M291.453,221.272h-15.084c-2.23,0-4.032-1.802-4.032-4.032
	s1.802-4.032,4.032-4.032h15.084c2.23,0,4.032,1.802,4.032,4.032S293.683,221.272,291.453,221.272z"/>
</svg>
