<?xml version="1.0" encoding="utf-8"?>
<!-- Generator: Adobe Illustrator 17.0.0, SVG Export Plug-In . SVG Version: 6.00 Build 0)  -->
<!DOCTYPE svg PUBLIC "-//W3C//DTD SVG 1.1//EN" "http://www.w3.org/Graphics/SVG/1.1/DTD/svg11.dtd">
<svg version="1.1" id="Layer_1" xmlns="http://www.w3.org/2000/svg" xmlns:xlink="http://www.w3.org/1999/xlink" x="0px" y="0px"
	 width="65.6px" height="65.6px" viewBox="417.2 7.2 65.6 65.6" enable-background="new 417.2 7.2 65.6 65.6" xml:space="preserve">
<g>
	<path d="M450,72.8c-18.086,0-32.8-14.714-32.8-32.8S431.914,7.2,450,7.2s32.8,14.714,32.8,32.8S468.086,72.8,450,72.8z M450,12.8
		c-14.998,0-27.2,12.202-27.2,27.2s12.202,27.2,27.2,27.2c14.998,0,27.2-12.202,27.2-27.2S464.998,12.8,450,12.8z"/>
</g>
<path d="M462.913,31.514c-1.094-1.093-2.866-1.093-3.959,0l-11.031,11.031l-5.275-5.275c-1.094-1.093-2.866-1.093-3.96,0
	c-1.094,1.094-1.094,2.866,0,3.96l7.253,7.253c0.001,0.001,0.001,0.002,0.002,0.002c0.547,0.547,1.264,0.82,1.98,0.82l0,0l0,0
	c0.717,0,1.434-0.274,1.98-0.82c0.002-0.002,0.002-0.003,0.003-0.004l13.006-13.006C464.006,34.381,464.006,32.608,462.913,31.514z"
	/>
</svg>
