<?xml version="1.0" encoding="utf-8"?>
<!-- Generator: Adobe Illustrator 17.0.0, SVG Export Plug-In . SVG Version: 6.00 Build 0)  -->
<!DOCTYPE svg PUBLIC "-//W3C//DTD SVG 1.1//EN" "http://www.w3.org/Graphics/SVG/1.1/DTD/svg11.dtd">
<svg version="1.1" id="Layer_1" xmlns="http://www.w3.org/2000/svg" xmlns:xlink="http://www.w3.org/1999/xlink" x="0px" y="0px"
	 width="391.222px" height="369.768px" viewBox="56.389 16.716 391.222 369.768"
	 enable-background="new 56.389 16.716 391.222 369.768" xml:space="preserve">
<g>
	<path d="M130.847,365.551c-41.059,0-74.458-33.398-74.458-74.449c0-28.98,17.128-55.398,43.176-67.494v-75.634h62.58v75.634
		c26.057,12.096,43.176,38.522,43.168,67.494C205.313,332.153,171.906,365.551,130.847,365.551z M116.365,164.766v70.274
		l-5.485,2.033c-22.546,8.341-37.691,30.055-37.691,54.029c0,31.786,25.864,57.649,57.658,57.649s57.666-25.864,57.666-57.649
		c0.008-23.974-15.137-45.679-37.682-54.029l-5.485-2.024v-70.274h-28.98V164.766z"/>
	<path d="M338.881,169.898c-4.645,0-8.4-3.763-8.4-8.4v-26.065c0-7.073-5.074-12.827-11.306-12.827H150.57
		c-6.124,0-11.306,4.486-11.306,9.803v18.203c0,4.637-3.763,8.4-8.4,8.4c-4.637,0-8.4-3.763-8.4-8.4v-18.203
		c0-14.666,12.608-26.603,28.106-26.603h168.605c15.498,0,28.106,13.289,28.106,29.627v26.065
		C347.281,166.135,343.526,169.898,338.881,169.898z"/>
	<path d="M340.368,320.242h-2.974c-13.415,0-24.326-10.912-24.326-24.326v-90.787h-10.861v-52.03h73.332l0.008,52.03h-10.861v90.796
		C364.686,309.33,353.774,320.242,340.368,320.242z M319.007,188.328h10.861v107.596c0,4.074,3.444,7.526,7.526,7.526h2.974
		c4.15,0,7.526-3.368,7.526-7.526V188.328h10.861v-18.43h-39.74v18.43H319.007z"/>
	<path d="M403.544,386.484c-4.645,0-8.4-3.755-8.4-8.4V25.116c0-4.637,3.755-8.4,8.4-8.4c4.645,0,8.4,3.763,8.4,8.4v352.968
		C411.944,382.729,408.19,386.484,403.544,386.484z"/>
	<path d="M439.211,386.484H64.789c-4.637,0-8.4-3.755-8.4-8.4s3.763-8.4,8.4-8.4h374.422c4.645,0,8.4,3.755,8.4,8.4
		S443.856,386.484,439.211,386.484z"/>
	<path d="M436.573,242.18H302.207c-4.645,0-8.4-3.755-8.4-8.4c0-4.645,3.755-8.4,8.4-8.4h134.366c4.645,0,8.4,3.755,8.4,8.4
		C444.973,238.426,441.21,242.18,436.573,242.18z"/>
	<path d="M222.617,122.606c-4.637,0-8.4-3.763-8.4-8.4V78.338c0-4.637,3.763-8.4,8.4-8.4s8.4,3.763,8.4,8.4v35.868
		C231.017,118.843,227.254,122.606,222.617,122.606z"/>
	<path d="M244.406,86.738h-45.57c-4.637,0-8.4-3.763-8.4-8.4c0-4.637,3.763-8.4,8.4-8.4h45.57c4.637,0,8.4,3.763,8.4,8.4
		C252.806,82.975,249.043,86.738,244.406,86.738z"/>
</g>
</svg>
