<?xml version="1.0" encoding="UTF-8" standalone="no"?>
<!-- Generator: Adobe Illustrator 17.0.0, SVG Export Plug-In . SVG Version: 6.00 Build 0)  -->

<svg
   xmlns:dc="http://purl.org/dc/elements/1.1/"
   xmlns:cc="http://creativecommons.org/ns#"
   xmlns:rdf="http://www.w3.org/1999/02/22-rdf-syntax-ns#"
   xmlns:svg="http://www.w3.org/2000/svg"
   xmlns="http://www.w3.org/2000/svg"
   xmlns:sodipodi="http://sodipodi.sourceforge.net/DTD/sodipodi-0.dtd"
   xmlns:inkscape="http://www.inkscape.org/namespaces/inkscape"
   version="1.1"
   id="Layer_1"
   x="0px"
   y="0px"
   width="75.991px"
   height="42.512px"
   viewBox="411.97 18.713 75.991 42.512"
   enable-background="new 411.97 18.713 75.991 42.512"
   xml:space="preserve"
   inkscape:version="0.48.3.1 r9886"
   sodipodi:docname="go-down.svg"><metadata
   id="metadata15"><rdf:RDF><cc:Work
       rdf:about=""><dc:format>image/svg+xml</dc:format><dc:type
         rdf:resource="http://purl.org/dc/dcmitype/StillImage" /></cc:Work></rdf:RDF></metadata><defs
   id="defs13" /><sodipodi:namedview
   pagecolor="#ffffff"
   bordercolor="#666666"
   borderopacity="1"
   objecttolerance="10"
   gridtolerance="10"
   guidetolerance="10"
   inkscape:pageopacity="0"
   inkscape:pageshadow="2"
   inkscape:window-width="681"
   inkscape:window-height="480"
   id="namedview11"
   showgrid="false"
   inkscape:zoom="4.2768224"
   inkscape:cx="37.995499"
   inkscape:cy="21.256001"
   inkscape:window-x="0"
   inkscape:window-y="0"
   inkscape:window-maximized="0"
   inkscape:current-layer="Layer_1" />
<g
   id="g3"
   style="fill:#FFFFFF;fill-opacity:1">
	<g
   id="g5"
   style="fill:#FFFFFF;fill-opacity:1">
		<path
   d="M449.938,60.225c-0.96,0-1.827-0.358-2.505-1.037l-33.426-33.426c-0.669-0.668-1.038-1.559-1.038-2.505    s0.369-1.837,1.038-2.506c0.668-0.668,1.559-1.037,2.505-1.037s1.837,0.368,2.505,1.037L450,51.732l30.92-30.981    c0.67-0.669,1.56-1.038,2.506-1.038c0.947,0,1.837,0.368,2.506,1.037c0.678,0.678,1.044,1.576,1.029,2.528    s-0.409,1.842-1.112,2.503l-33.405,33.405C451.784,59.847,450.871,60.225,449.938,60.225z"
   id="path7"
   style="fill:#FFFFFF;fill-opacity:1" />
		<path
   d="M483.426,20.713c0.651,0,1.302,0.248,1.798,0.744c0.992,0.992,0.992,2.605-0.062,3.597l-33.426,33.426    c-0.496,0.496-1.178,0.744-1.798,0.744c-0.682,0-1.302-0.248-1.798-0.744l-33.426-33.426c-0.992-0.992-0.992-2.605,0-3.597    c0.496-0.496,1.147-0.744,1.798-0.744c0.651,0,1.302,0.248,1.798,0.744L450,53.147l31.628-31.69    C482.124,20.961,482.775,20.713,483.426,20.713 M483.426,18.713c-1.214,0-2.355,0.472-3.213,1.33l-30.215,30.274l-30.274-30.274    c-0.858-0.858-1.999-1.33-3.213-1.33s-2.355,0.472-3.213,1.33c-1.771,1.771-1.771,4.654,0,6.425l33.426,33.426    c0.87,0.87,1.981,1.33,3.213,1.33c1.196,0,2.367-0.485,3.213-1.33l33.408-33.408c0.886-0.846,1.384-1.979,1.402-3.193    c0.019-1.225-0.451-2.38-1.322-3.251C485.781,19.186,484.64,18.713,483.426,18.713L483.426,18.713z"
   id="path9"
   style="fill:#FFFFFF;fill-opacity:1" />
	</g>
</g>
</svg>