<?xml version="1.0" encoding="utf-8"?>
<!-- Generator: Adobe Illustrator 17.0.0, SVG Export Plug-In . SVG Version: 6.00 Build 0)  -->
<!DOCTYPE svg PUBLIC "-//W3C//DTD SVG 1.1//EN" "http://www.w3.org/Graphics/SVG/1.1/DTD/svg11.dtd">
<svg version="1.1" id="Layer_1" xmlns="http://www.w3.org/2000/svg" xmlns:xlink="http://www.w3.org/1999/xlink" x="0px" y="0px"
	 width="174px" height="61px" viewBox="0 0 174 61" enable-background="new 0 0 174 61" xml:space="preserve">
<g>
	<g>
		<path fill="#FFFFFF" d="M143.631,19.467h-12.077l-9.575,8.84h-0.166l7.397-18.614H118.53l-9.482,23.864l-0.001,0
			c-1.274-0.145-2.535-0.303-3.78-0.479h1.603l0.762-1.911c4.005-10.074-2.221-12.326-7.647-12.326
			c-7.096,0-13.779,3.848-16.826,10.164c-0.176,0.358-0.341,0.723-0.49,1.099c-1.86,4.675-2.504,11.636,9.15,11.636
			c3.037,0,6.36-0.005,13.977-0.005v0.005h10.676l2.931-7.376c0.688,0.029,1.381,0.05,2.074,0.071l1.144,7.305h12.455l-2.85-12.454
			L143.631,19.467z M99.509,28.148l-0.151,0.38h-5.509l0.168-0.422c1.453-3.655,3.561-3.954,4.324-3.954
			C99.526,24.152,100.776,24.96,99.509,28.148z"/>
		<path fill="#FFFFFF" d="M140.67,44.779l-20.614-0.04h-1.546H91.82c-5.685,0-9.615-1.546-11.685-4.596
			c-1.934-2.85-2.021-6.706-0.252-11.149c0.176-0.444,0.372-0.881,0.583-1.311c3.467-7.187,11.132-11.842,19.52-11.842
			c4.854,0,8.449,1.518,10.397,4.388c0.16,0.236,0.308,0.479,0.442,0.729l5.668-14.265h17.135l-3.876,9.776l21.961-0.002
			l-16.159,13.912L140.67,44.779z M125.188,38.739h6.124l-2.414-10.547l6.649-5.725h-2.821l-9.575,8.84h-5l1.381,0.059
			c0.606,0.026,1.219,0.044,1.83,0.063l2.694,0.083L125.188,38.739z M108.798,38.739h5.64l10.352-26.046h-4.223l-9.576,24.103
			l-2.279-0.258c-1.303-0.148-2.592-0.31-3.863-0.49l0.259-3.674l-1.021-0.407l0.762-1.911c1.18-2.968,1.384-5.262,0.572-6.458
			c-0.665-0.979-2.27-1.593-4.473-1.729c0.507,0.318,0.944,0.735,1.287,1.24c1.049,1.545,1.07,3.614,0.063,6.146l-0.898,2.272
			H89.425l1.805-4.532c0.726-1.824,1.627-3.086,2.557-3.956c-3.464,1.402-6.328,3.958-7.924,7.267
			c-0.149,0.305-0.283,0.598-0.402,0.899c-0.972,2.444-1.103,4.472-0.358,5.568c0.859,1.267,3.245,1.964,6.719,1.964l16.978-0.005
			V38.739z"/>
	</g>
	<g>
		<path fill="#FFFFFF" d="M154.517,18.958c-8.435,0-15.514,4.378-18.403,11.645c-0.522,1.312-0.825,2.527-0.933,3.642h0
			c0,0.001,0,0.002,0,0.003c-0.02,0.209-0.023,0.408-0.029,0.61c-0.004,0.136-0.011,0.274-0.009,0.407
			c0.003,0.191,0.017,0.376,0.034,0.56c0.012,0.134,0.027,0.267,0.045,0.398c0.025,0.175,0.055,0.349,0.093,0.517
			c0.029,0.129,0.066,0.254,0.102,0.379c0.047,0.16,0.09,0.322,0.149,0.476c0.05,0.131,0.113,0.254,0.171,0.38
			c0.112,0.241,0.238,0.472,0.381,0.694c0.082,0.128,0.161,0.258,0.254,0.379c0.087,0.114,0.186,0.222,0.282,0.33
			c0.1,0.114,0.203,0.227,0.313,0.334c0.103,0.1,0.211,0.197,0.323,0.292c0.126,0.107,0.258,0.209,0.395,0.309
			c0.113,0.083,0.226,0.166,0.346,0.244c0.171,0.11,0.353,0.211,0.539,0.311c0.103,0.056,0.2,0.116,0.308,0.168
			c0.294,0.143,0.605,0.273,0.931,0.391c0.106,0.038,0.221,0.069,0.33,0.105c0.242,0.079,0.489,0.155,0.747,0.221
			c0.14,0.036,0.286,0.067,0.431,0.099c0.248,0.055,0.502,0.104,0.763,0.148c0.153,0.025,0.307,0.05,0.464,0.071
			c0.286,0.039,0.583,0.069,0.884,0.095c0.143,0.012,0.281,0.028,0.427,0.037c0.453,0.029,0.918,0.047,1.403,0.047
			c8.437,0,15.511-4.379,18.403-11.644c0.153-0.381,0.391-1.114,0.391-1.114C166.146,22.894,162.508,18.958,154.517,18.958z
			 M152.218,30.603c-0.226,0.57-0.472,1.181-0.748,1.779c-1.576,0.275-3.175,0.531-4.804,0.755c0.218-0.822,0.568-1.72,0.891-2.534
			c0.912-2.296,2.135-5.27,4.427-5.27C154.269,25.333,153.129,28.307,152.218,30.603z"/>
		<path fill="#FFFFFF" d="M145.257,45.248c-0.55,0-1.078-0.02-1.593-0.053c-0.125-0.008-0.246-0.019-0.368-0.031l-0.123-0.011
			c-0.354-0.031-0.701-0.066-1.036-0.112c-0.181-0.024-0.367-0.054-0.551-0.084c-0.312-0.052-0.618-0.111-0.916-0.177
			c-0.206-0.045-0.366-0.081-0.522-0.12c-0.328-0.084-0.637-0.178-0.941-0.277c-0.187-0.057-0.306-0.095-0.421-0.136
			c-0.426-0.154-0.835-0.326-1.218-0.512c-0.131-0.063-0.25-0.129-0.368-0.197c-0.305-0.165-0.556-0.307-0.791-0.458
			c-0.159-0.103-0.305-0.207-0.449-0.312c-0.238-0.174-0.43-0.322-0.611-0.477c-0.164-0.139-0.327-0.286-0.481-0.437
			c-0.158-0.153-0.313-0.322-0.465-0.494c-0.171-0.193-0.3-0.342-0.417-0.496c-0.126-0.165-0.241-0.34-0.354-0.518
			c-0.251-0.392-0.446-0.748-0.615-1.113c-0.11-0.231-0.188-0.4-0.254-0.576c-0.08-0.209-0.149-0.436-0.214-0.663
			c-0.071-0.249-0.119-0.418-0.158-0.592c-0.056-0.245-0.1-0.496-0.136-0.751c-0.027-0.189-0.048-0.376-0.064-0.565
			c-0.022-0.244-0.04-0.498-0.045-0.759c-0.003-0.165,0.001-0.316,0.006-0.468l0.007-0.213c0.005-0.173,0.012-0.346,0.024-0.522
			l0.014-0.168c0.139-1.42,0.52-2.921,1.133-4.461c3.318-8.349,11.438-13.536,21.189-13.536c6.671,0,9.865,2.452,11.37,4.509
			c1.329,1.816,2.585,5.013,1.023,9.93l-0.665,2.095l-0.126,0C162.613,40.381,154.698,45.248,145.257,45.248z M138.172,34.479
			l-0.006,0.062c-0.009,0.095-0.01,0.187-0.012,0.278l-0.012,0.402c0.002,0.102,0.012,0.218,0.022,0.334
			c0.007,0.088,0.016,0.167,0.026,0.244c0.014,0.091,0.028,0.186,0.049,0.278c0.013,0.056,0.03,0.11,0.046,0.165l0.032,0.112
			c0.018,0.06,0.032,0.12,0.053,0.177l0.086,0.177c0.057,0.121,0.116,0.231,0.185,0.336l0.203,0.282
			c0.11,0.125,0.16,0.182,0.215,0.235c0.059,0.058,0.112,0.105,0.168,0.151c0.073,0.062,0.147,0.119,0.224,0.174
			c0.1,0.073,0.151,0.113,0.207,0.149c0.101,0.064,0.215,0.125,0.33,0.187l0.182,0.101c0.22,0.11,0.435,0.199,0.659,0.28
			l0.238,0.073c0.182,0.06,0.365,0.117,0.558,0.166l0.283,0.064c0.251,0.055,0.453,0.095,0.662,0.13
			c0.123,0.021,0.245,0.04,0.37,0.057c0.246,0.034,0.493,0.059,0.743,0.08l0.361,0.032c0.392,0.025,0.793,0.041,1.212,0.041
			c7.237,0,13.221-3.738,15.616-9.754c0.119-0.297,0.295-0.839,0.322-0.925c0.439-1.389,0.768-3.302-0.151-4.558
			c-0.968-1.323-3.286-2.052-6.527-2.052c-7.24,0-13.224,3.737-15.614,9.753C138.506,32.706,138.261,33.637,138.172,34.479z
			 M142.612,36.723l1.153-4.354c0.257-0.968,0.637-1.95,1.003-2.873c0.994-2.503,2.846-7.163,7.215-7.163
			c2.07,0,3.141,1.122,3.595,1.791c1.54,2.27,0.369,5.218-0.572,7.587c-0.244,0.616-0.513,1.281-0.813,1.931l-0.659,1.427
			l-1.549,0.27c-1.767,0.308-3.373,0.56-4.909,0.771L142.612,36.723z"/>
	</g>
</g>
<g>
	<path fill="#1E71B8" d="M143.616,19.471h-12.072l-9.571,8.835h-0.168l7.395-18.607h-10.674L108.11,35.914
		c-6.746,0.09-9.109-0.021-11.759-0.021c-4.448,0-4.807-1.244-4.305-2.819h14.825l0.762-1.909
		c4.003-10.07-2.221-12.322-7.644-12.322c-7.498,0-14.542,4.291-17.309,11.26c-1.859,4.671-2.507,11.629,9.146,11.629
		c3.035,0,6.358-0.002,13.973-0.002v0.002h10.673l4.288-10.793h0.167l1.687,10.793h12.452l-2.848-12.448L143.616,19.471z
		 M94.021,28.104c1.453-3.652,3.561-3.954,4.324-3.954c1.185,0,2.434,0.81,1.166,3.997l-0.152,0.381h-5.506L94.021,28.104z"/>
	<path fill="#1E71B8" d="M154.499,18.96c-8.432,0-15.509,4.376-18.396,11.641c-2.889,7.263,0.71,11.64,9.14,11.64
		c8.433,0,15.505-4.377,18.397-11.64C166.524,23.336,162.93,18.96,154.499,18.96z M152.201,30.601
		c-0.912,2.293-2.134,5.267-4.425,5.267c-2.285,0-1.148-2.974-0.236-5.267c0.914-2.295,2.134-5.269,4.425-5.269
		C154.252,25.332,153.113,28.306,152.201,30.601z"/>
</g>
<path fill="#FFFFFF" stroke="#FFFFFF" stroke-width="6" stroke-miterlimit="10" d="M55.326,6.32
	c-10.839-1.573-15.677,3.906-16.005,4.217h0c-0.327-0.31-5.166-5.79-16.005-4.217c-8.067,1.171-13.027,8.677-13.027,13.986
	c0.002,25.941,27.937,33.766,29.032,33.78h0c1.094-0.013,29.03-7.839,29.032-33.78C68.353,14.997,63.393,7.491,55.326,6.32z"/>
<g>
	<path fill="#1E71B8" d="M19.21,7.812c5.055-3.905,14.995-0.788,15.525,4.807c0.382,4.014-5.485,5.969-8.554,10.813
		c-3.622,5.718-3.051,14.678,6.671,16.585c12.584,2.467,19.436-7.219,21.733-13.345c2.286-6.099,1.352-19.267-13.771-15.707
		c6.609-4.575,12.618-5.294,15.01-4.654c10.663,2.856,13.005,12.044,13.005,15.348c0,14.545-22.723,35.215-33.308,31.067
		c-31.454-12.328-9.15-32.535-8.941-37.058c0.2-4.375-9.359-4.817-9.834,5.927C14.93,15.343,17.019,9.505,19.21,7.812"/>
	<path fill="#36A9E1" d="M40.94,44.136c-1.27-7.245-16.617-12.053-21.986-14.616c-4.667-2.225-9.142-4.92-9.142-10.269
		c0-5.349,6.92-12.486,14.031-13.136c-2.356,0.5-4.087,2.113-4.651,4.433c-1.414,5.808,3.382,14.507,14.175,19.391
		c20.755,9.392,34.36-0.898,35.462-8.28c0.002,0.122,0.002,0.242,0.001,0.364c-0.249,20.944-26.013,32.42-29.77,32.376
		c-1.368-0.017-5.637-1.863-10.546-5.037c1.225,0.376,2.53,0.72,4.04,0.875C36.366,50.617,41.958,49.092,40.94,44.136"/>
	<g>
		<g>
			<defs>
				<rect id="SVGID_1_" x="65.761" y="29.086" width="0.007" height="0.001"/>
			</defs>
			<clipPath id="SVGID_2_">
				<use xlink:href="#SVGID_1_"  overflow="visible"/>
			</clipPath>
			<polyline clip-path="url(#SVGID_2_)" fill="#19ACD9" points="65.761,29.087 65.768,29.087 65.761,29.087 			"/>
		</g>
	</g>
	<g>
		<g>
			<defs>
				<rect id="SVGID_3_" x="21.033" y="43.065" width="0.004" height="0.002"/>
			</defs>
			<clipPath id="SVGID_4_">
				<use xlink:href="#SVGID_3_"  overflow="visible"/>
			</clipPath>
			<g clip-path="url(#SVGID_4_)">
				<defs>
					<polyline id="SVGID_5_" points="21.037,43.067 21.033,43.067 21.037,43.067 					"/>
				</defs>
				<clipPath id="SVGID_6_">
					<use xlink:href="#SVGID_5_"  overflow="visible"/>
				</clipPath>
				
					<radialGradient id="SVGID_7_" cx="21.0348" cy="43.0662" r="0.0015" gradientTransform="matrix(-0.0053 0 0 -0.0053 -768.2685 762.6733)" gradientUnits="userSpaceOnUse">
					<stop  offset="0" style="stop-color:#FFFFFF"/>
					<stop  offset="1" style="stop-color:#13110C"/>
				</radialGradient>
				<rect x="21.033" y="43.065" clip-path="url(#SVGID_6_)" fill="url(#SVGID_7_)" width="0.004" height="0.002"/>
			</g>
		</g>
	</g>
	<path fill="#1E71B8" d="M21.58,44.136c-6.184-6.524-2.456-10.676-6.184-14.573c-1.534-1.602-5.843-3.634-3.813,1.1
		C12.991,33.95,18.191,41.34,21.58,44.136"/>
	<g>
		<defs>
			<path id="SVGID_8_" d="M34.205,25.581c4.669,5.956,14.82,0.566,23.074-7.918c4.075-4.19,7.944-4.092,9.993-2.117
				c-0.544-1.173-1.142-2.45-2.17-3.29c-6.241-5.104-15.371,4.466-20.729,5.318c-3.67,0.583-4.19-1.196-3.051-3.305
				c2.542-4.703,8.204-8.721,14.5-7.958c-1.616-0.403-3.158-0.587-4.622-0.587C37.723,5.723,30.88,21.34,34.205,25.581"/>
		</defs>
		<clipPath id="SVGID_9_">
			<use xlink:href="#SVGID_8_"  overflow="visible"/>
		</clipPath>
		<rect x="30.88" y="5.548" clip-path="url(#SVGID_9_)" fill="#36A9E1" width="36.392" height="25.989"/>
	</g>
</g>
</svg>
