<?xml version="1.0" encoding="utf-8"?>
<!-- Generator: Adobe Illustrator 17.0.0, SVG Export Plug-In . SVG Version: 6.00 Build 0)  -->
<!DOCTYPE svg PUBLIC "-//W3C//DTD SVG 1.1//EN" "http://www.w3.org/Graphics/SVG/1.1/DTD/svg11.dtd">
<svg version="1.1" id="Layer_1" xmlns="http://www.w3.org/2000/svg" xmlns:xlink="http://www.w3.org/1999/xlink" x="0px" y="0px"
	 width="155.869px" height="163.014px" viewBox="174.065 120.093 155.869 163.014"
	 enable-background="new 174.065 120.093 155.869 163.014" xml:space="preserve">
<g>
	<g>
		<path d="M228.332,283.107h47.336v-47.336h-47.336V283.107z M234.912,242.351h34.175v34.175h-34.175V242.351z"/>
		<path d="M282.603,235.771v47.336h47.332v-47.336H282.603z M323.354,276.527h-34.175v-34.176h34.175V276.527z"/>
		<path d="M174.065,283.107h47.332v-47.336h-47.332V283.107z M180.646,242.351h34.175v34.175h-34.175V242.351z"/>
		<path d="M212.446,215.873l-4.855-4.855l-6.427,6.427v-25.692h41.328v-15.793h6.076v41.485l-6.431-6.427l-4.855,4.855L252,230.586
			l14.713-14.713l-4.855-4.855l-6.427,6.427v-41.477h6.076v15.793h41.328v25.692l-6.427-6.427l-4.854,4.846l14.713,14.713
			l14.713-14.713l-4.855-4.855l-6.431,6.427v-32.554H268.37v-8.927h11.564v-55.871h-55.871v55.871h11.564v8.927h-41.324v32.554
			l-6.431-6.427l-4.855,4.855l14.713,14.713L212.446,215.873z M230.642,126.673h42.711v42.711h-42.711L230.642,126.673z"/>
	</g>
</g>
</svg>
