<?xml version="1.0" encoding="UTF-8" standalone="no"?>
<!-- Generator: Adobe Illustrator 17.0.0, SVG Export Plug-In . SVG Version: 6.00 Build 0)  -->

<svg
   xmlns:dc="http://purl.org/dc/elements/1.1/"
   xmlns:cc="http://creativecommons.org/ns#"
   xmlns:rdf="http://www.w3.org/1999/02/22-rdf-syntax-ns#"
   xmlns:svg="http://www.w3.org/2000/svg"
   xmlns="http://www.w3.org/2000/svg"
   xmlns:sodipodi="http://sodipodi.sourceforge.net/DTD/sodipodi-0.dtd"
   xmlns:inkscape="http://www.inkscape.org/namespaces/inkscape"
   version="1.1"
   id="Layer_1"
   x="0px"
   y="0px"
   width="100"
   height="100"
   viewBox="0 0 100 100"
   enable-background="new 0 0 93 91"
   xml:space="preserve"
   inkscape:version="0.48.3.1 r9886"
   sodipodi:docname="phone_empty.svg"><metadata
   id="metadata15"><rdf:RDF><cc:Work
       rdf:about=""><dc:format>image/svg+xml</dc:format><dc:type
         rdf:resource="http://purl.org/dc/dcmitype/StillImage" /></cc:Work></rdf:RDF></metadata><defs
   id="defs13" /><sodipodi:namedview
   pagecolor="#ffffff"
   bordercolor="#666666"
   borderopacity="1"
   objecttolerance="10"
   gridtolerance="10"
   guidetolerance="10"
   inkscape:pageopacity="0"
   inkscape:pageshadow="2"
   inkscape:window-width="681"
   inkscape:window-height="480"
   id="namedview11"
   showgrid="false"
   inkscape:zoom="2.5934066"
   inkscape:cx="46.5"
   inkscape:cy="45.5"
   inkscape:window-x="0"
   inkscape:window-y="0"
   inkscape:window-maximized="0"
   inkscape:current-layer="Layer_1" />
<g
   id="g3"
   style="fill:#ffffff;fill-opacity:1"
   transform="translate(4,5)">
	<path
   d="m 57.839,70.631 c -2.76,1.2 -5.76,0.84 -8.04,-0.72 -0.36,-0.12 -0.6,-0.36 -0.84,-0.6 -0.36,-0.24 -8.28,-7.32 -13.44,-18.84 -5.16,-11.52 -5.16,-22.2 -5.16,-22.56 0,-0.24 0,-0.48 0,-0.6 0.24,-2.88 1.92,-5.64 4.8,-6.96 4.08,-1.8 9,0 10.8,4.08 1.8,4.08 0,9 -4.08,10.8 -0.12,0.12 -0.24,0.12 -0.48,0.12 0.6,3.12 1.68,6.96 3.36,10.92 1.8,3.96 3.96,7.2 5.88,9.72 0.12,-0.12 0.24,-0.12 0.36,-0.24 4.08,-1.8 9,0 10.8,4.08 2.04,4.08 0.24,9 -3.96,10.8 z"
   id="path5"
   style="fill:#ffffff;fill-opacity:1"
   inkscape:connector-curvature="0" />
</g>
<g
   id="g7"
   style="fill:#ffffff;fill-opacity:1"
   transform="translate(4,5)">
	<path
   d="M 46.5,90.7 C 21.577,90.7 1.3,70.424 1.3,45.5 1.3,20.577 21.577,0.3 46.5,0.3 c 24.924,0 45.2,20.277 45.2,45.2 0,24.924 -20.276,45.2 -45.2,45.2 z m 0,-86.4 C 23.782,4.3 5.3,22.782 5.3,45.5 5.3,68.218 23.782,86.7 46.5,86.7 69.218,86.7 87.7,68.218 87.7,45.5 87.7,22.782 69.218,4.3 46.5,4.3 z"
   id="path9"
   style="fill:#ffffff;fill-opacity:1"
   inkscape:connector-curvature="0" />
</g>
</svg>