<?xml version="1.0" encoding="UTF-8" standalone="no"?>
<!-- Generator: Adobe Illustrator 17.0.0, SVG Export Plug-In . SVG Version: 6.00 Build 0)  -->

<svg
   xmlns:dc="http://purl.org/dc/elements/1.1/"
   xmlns:cc="http://creativecommons.org/ns#"
   xmlns:rdf="http://www.w3.org/1999/02/22-rdf-syntax-ns#"
   xmlns:svg="http://www.w3.org/2000/svg"
   xmlns="http://www.w3.org/2000/svg"
   xmlns:sodipodi="http://sodipodi.sourceforge.net/DTD/sodipodi-0.dtd"
   xmlns:inkscape="http://www.inkscape.org/namespaces/inkscape"
   version="1.1"
   id="Layer_1"
   x="0px"
   y="0px"
   width="100"
   height="100"
   viewBox="0 0 99.999998 100"
   enable-background="new 0 0 93 91"
   xml:space="preserve"
   inkscape:version="0.48.3.1 r9886"
   sodipodi:docname="phone_full_blue.svg"><metadata
   id="metadata11"><rdf:RDF><cc:Work
       rdf:about=""><dc:format>image/svg+xml</dc:format><dc:type
         rdf:resource="http://purl.org/dc/dcmitype/StillImage" /></cc:Work></rdf:RDF></metadata><defs
   id="defs9" /><sodipodi:namedview
   pagecolor="#ffffff"
   bordercolor="#666666"
   borderopacity="1"
   objecttolerance="10"
   gridtolerance="10"
   guidetolerance="10"
   inkscape:pageopacity="0"
   inkscape:pageshadow="2"
   inkscape:window-width="1060"
   inkscape:window-height="480"
   id="namedview7"
   showgrid="false"
   inkscape:zoom="2.5934066"
   inkscape:cx="45.2"
   inkscape:cy="45.2"
   inkscape:window-x="0"
   inkscape:window-y="0"
   inkscape:window-maximized="0"
   inkscape:current-layer="Layer_1"
   fit-margin-top="0"
   fit-margin-left="0"
   fit-margin-right="0"
   fit-margin-bottom="0" />
<g
   id="g3"
   style="fill:#0095da;fill-opacity:0.77248673"
   transform="translate(2.7,5.2999985)">
	<path
   d="M 46.5,0.3 C 21.58,0.3 1.3,20.58 1.3,45.5 1.3,70.42 21.58,90.7 46.5,90.7 71.42,90.7 91.7,70.42 91.7,45.5 91.7,20.58 71.42,0.3 46.5,0.3 z m 11.34,70.33 c -2.76,1.2 -5.76,0.84 -8.04,-0.72 -0.36,-0.12 -0.6,-0.36 -0.84,-0.6 C 48.6,69.07 40.68,61.99 35.52,50.47 30.36,38.95 30.36,28.27 30.36,27.91 v -0.6 c 0.24,-2.88 1.92,-5.64 4.8,-6.96 4.08,-1.8 9,0 10.8,4.08 1.8,4.08 0,9 -4.08,10.8 -0.12,0.12 -0.24,0.12 -0.48,0.12 0.6,3.12 1.68,6.96 3.36,10.92 1.8,3.96 3.96,7.2 5.88,9.72 0.12,-0.12 0.24,-0.12 0.36,-0.24 4.08,-1.8 9,0 10.8,4.08 2.04,4.08 0.24,9 -3.96,10.8 z"
   id="path5"
   style="fill:#0095da;fill-opacity:0.77248673"
   inkscape:connector-curvature="0" />
</g>
</svg>